<svg width="40" height="40" viewBox="0 0 40 40" fill="none" xmlns="http://www.w3.org/2000/svg">
<path d="M20 0C14.6969 0 9.60625 2.10844 5.85938 5.85781C2.10938 9.60719 0 14.6978 0 20C0 25.3022 2.10938 30.3928 5.85938 34.1422C9.60625 37.8916 14.6969 40 20 40C25.3031 40 30.3937 37.8916 34.1406 34.1422C37.8906 30.3928 40 25.3022 40 20C40 14.6978 37.8906 9.60719 34.1406 5.85781C30.3937 2.10844 25.3031 0 20 0Z" fill="#F7F7F7"/>
<path d="M9.63636 28.0045H13.4545V18.7318L8 14.6409V26.3681C8 27.2736 8.73364 28.0045 9.63636 28.0045Z" fill="#4285F4"/>
<path d="M26.5454 28.0045H30.3636C31.269 28.0045 32 27.2709 32 26.3681V14.6409L26.5454 18.7318" fill="#34A853"/>
<path d="M26.5454 11.641V18.7319L32 14.641V12.4592C32 10.4356 29.69 9.28191 28.0727 10.4956" fill="#FBBC04"/>
<path d="M13.4546 18.732V11.6411L20 16.5502L26.5455 11.6411V18.732L20 23.6411" fill="#EA4335"/>
<path d="M8 12.4592V14.641L13.4545 18.7319V11.641L11.9273 10.4956C10.3073 9.28191 8 10.4356 8 12.4592Z" fill="#C5221F"/>
</svg>
