<svg width="40" height="40" viewBox="0 0 40 40" fill="none" xmlns="http://www.w3.org/2000/svg">
<path d="M20 0C14.6969 0 9.60625 2.10844 5.85938 5.85781C2.10938 9.60719 0 14.6978 0 20C0 25.3022 2.10938 30.3928 5.85938 34.1422C9.60625 37.8916 14.6969 40 20 40C25.3031 40 30.3938 37.8916 34.1406 34.1422C37.8906 30.3928 40 25.3022 40 20C40 14.6978 37.8906 9.60719 34.1406 5.85781C30.3938 2.10844 25.3031 0 20 0V0Z" fill="url(#paint0_linear_106_1144)"/>
<path d="M9.05299 19.7887C14.8842 17.2487 18.7717 15.574 20.7154 14.7649C26.2717 12.4546 27.4248 12.0534 28.1779 12.0399C28.3435 12.0371 28.7123 12.0781 28.9529 12.2727C29.1529 12.4368 29.2092 12.6587 29.2373 12.8143C29.2623 12.9699 29.2967 13.3246 29.2686 13.6015C28.9686 16.764 27.6655 24.4384 27.003 27.9806C26.7248 29.4794 26.1717 29.9819 25.6373 30.0309C24.4748 30.1378 23.5935 29.2634 22.4685 28.5262C20.7091 27.3721 19.7155 26.654 18.0061 25.5281C16.0311 24.2268 17.3123 23.5115 18.4373 22.3427C18.731 22.0368 23.8498 17.3821 23.9466 16.9599C23.9591 16.9071 23.9717 16.7102 23.8529 16.6065C23.7373 16.5024 23.5653 16.5381 23.4403 16.5662C23.2622 16.6062 20.4528 18.4649 15.0028 22.1421C14.206 22.6902 13.4841 22.9574 12.8341 22.9434C12.1216 22.9281 10.7467 22.5396 9.72483 22.2077C8.47483 21.8006 7.47791 21.5852 7.56541 20.8937C7.60916 20.5337 8.10611 20.1652 9.05299 19.7887V19.7887Z" fill="white"/>
<defs>
<linearGradient id="paint0_linear_106_1144" x1="20" y1="0" x2="20" y2="40" gradientUnits="userSpaceOnUse">
<stop stop-color="#2AABEE"/>
<stop offset="1" stop-color="#229ED9"/>
</linearGradient>
</defs>
</svg>
